<mxfile host="app.diagrams.net" modified="2024-02-04T16:26:34.754Z" agent="Mozilla/5.0 (Linux; Android 10; K) AppleWebKit/537.36 (KHTML, like Gecko) Chrome/121.0.0.0 Mobile Safari/537.36" version="23.1.1" etag="0RwMly5PyJAdccleJ6y0" type="github">
  <diagram name="PÃ¡gina-1" id="RsKANWZbHnyl7g4F-w7M">
    <mxGraphModel>
      <root>
        <mxCell id="0" />
        <mxCell id="1" parent="0" />
      </root>
    </mxGraphModel>
  </diagram>
</mxfile>
